<?xml version="1.0" standalone="no"?>
<!DOCTYPE svg PUBLIC "-//W3C//DTD SVG 20010904//EN"
 "http://www.w3.org/TR/2001/REC-SVG-20010904/DTD/svg10.dtd">
<svg version="1.0" xmlns="http://www.w3.org/2000/svg"
 width="512.000000pt" height="512.000000pt" viewBox="0 0 512.000000 512.000000"
 preserveAspectRatio="xMidYMid meet">
<metadata>
Created by potrace 1.11, written by Peter Selinger 2001-2013
</metadata>
<g transform="translate(0.000000,512.000000) scale(0.100000,-0.100000)"
fill="#000000" stroke="none">
<path d="M190 2505 l0 -2285 515 0 515 0 0 2285 0 2285 -515 0 -515 0 0 -2285z
m730 -5 l0 -1980 -215 0 -215 0 0 1980 0 1980 215 0 215 0 0 -1980z"/>
<path d="M3900 2505 l0 -2285 520 0 520 0 -2 2283 -3 2282 -517 3 -518 2 0
-2285z m730 -5 l0 -1980 -215 0 -215 0 0 1980 0 1980 215 0 215 0 0 -1980z"/>
<path d="M1435 3670 c-8 -13 298 -390 560 -690 56 -63 141 -164 191 -225 113
-139 186 -212 299 -299 50 -39 91 -71 93 -71 1 -1 -5 -19 -13 -40 -28 -65 -8
-77 92 -54 46 11 51 9 118 -25 105 -54 121 -47 79 36 -25 49 -25 53 -9 63 85
49 161 118 404 368 328 337 370 384 347 393 -16 6 -244 -123 -456 -259 -69
-44 -170 -107 -225 -139 -55 -33 -125 -84 -156 -114 l-56 -55 -53 68 c-83 105
-145 168 -270 272 -63 52 -185 156 -270 231 -246 215 -650 550 -663 550 -3 0
-9 -4 -12 -10z"/>
</g>
</svg>
