<svg id="Layer_1" xmlns="http://www.w3.org/2000/svg" viewBox="0 0 512 512"><style>.st0{fill:none;stroke:#333;stroke-width:30;stroke-miterlimit:10;} .st1{fill:#333;}</style><path id="XMLID_1_" class="st0" d="M33.5 47.2h74v427h-74z"/><path id="XMLID_2_" class="st0" d="M404.6 48.2h74v427h-74z"/><g id="XMLID_24_"><path id="XMLID_12_" class="st1" d="M361.3 201s-1.4 1.6-3.9 4.4c-1.2 1.4-2.8 3.1-4.5 5-1.8 1.9-3.7 4.1-5.9 6.4l-7.1 7.4c-2.5 2.6-5.2 5.4-8 8.2-2.8 2.8-5.7 5.8-8.6 8.7-2.9 2.9-6 5.9-9 8.8-3 2.9-5.9 6.1-8.7 9.2-1.4 1.5-2.8 3.1-4.2 4.5-1.4 1.4-2.9 2.8-4.4 4.1-3 2.5-6.2 4.6-9.4 6.4-3.2 1.8-6.3 3.4-9.3 4.7-6 2.6-11.4 4.3-15.4 5.2-2 .5-3.6.7-4.8.9-1.1.2-1.8.2-1.8.2l-1.6-2s.2-.6.6-1.7c.4-1.1 1-2.6 1.9-4.5 1.7-3.7 4.5-8.6 8.4-13.8 1.9-2.6 4.2-5.3 6.6-8 2.5-2.7 5.2-5.4 8.3-7.8 1.6-1.2 3.2-2.3 4.9-3.4 1.7-1.1 3.5-2.1 5.4-3.1 3.7-2.1 7.3-4.2 10.9-6.5 3.5-2.3 7.1-4.6 10.6-6.9 3.5-2.3 7-4.4 10.3-6.5 3.4-2.1 6.7-4.1 9.8-6 3.1-1.9 6.1-3.7 8.8-5.3 2.7-1.6 5.3-3.1 7.5-4.4 2.2-1.3 4.2-2.4 5.8-3.3 3.2-1.8 5.1-2.9 5.1-2.9l1.7 2z"/></g><g id="XMLID_23_"><path id="XMLID_10_" class="st1" d="M144.4 143.1s2.5 2 6.8 5.5c2.2 1.7 4.8 3.9 7.8 6.4 3 2.5 6.4 5.2 10 8.3 3.7 3.1 7.6 6.4 11.8 9.9 4.2 3.5 8.6 7.3 13.1 11.1 4.5 3.9 9.2 7.9 13.9 12 4.7 4.1 9.5 8.3 14.2 12.6 4.8 4.2 9.7 8.3 14.6 12.2l7.2 6c2.3 2 4.5 4.1 6.7 6.1 4.2 4.2 8 8.5 11.5 12.8 3.4 4.3 6.6 8.4 9.3 12.4 5.5 7.9 9.6 15 12.3 20.2 1.3 2.6 2.3 4.7 2.9 6.2.6 1.5.9 2.3.9 2.3l-1.8 1.8s-.8-.3-2.3-.9c-1.5-.6-3.6-1.6-6.2-3-5.2-2.7-12.3-6.8-20.1-12.4-4-2.8-8.1-5.9-12.3-9.4-4.2-3.5-8.6-7.3-12.7-11.5-2.1-2.1-4.1-4.4-6.1-6.7s-3.9-4.8-5.9-7.2c-3.9-4.9-7.9-9.9-12.1-14.6l-12.5-14.3c-4.1-4.7-8.1-9.4-11.9-14-3.8-4.6-7.6-9-11-13.2-3.5-4.2-6.8-8.2-9.8-11.9-3.1-3.7-5.8-7.1-8.2-10.1-2.5-3-4.6-5.6-6.3-7.8l-5.5-6.9 1.7-1.9z"/></g></svg>